<?xml version="1.0" encoding="utf-8"?>
<!-- Svg Vector Icons : http://www.onlinewebfonts.com/icon -->
<!DOCTYPE svg PUBLIC "-//W3C//DTD SVG 1.1//EN" "http://www.w3.org/Graphics/SVG/1.1/DTD/svg11.dtd">
<svg version="1.1" xmlns="http://www.w3.org/2000/svg" xmlns:xlink="http://www.w3.org/1999/xlink" x="0px" y="0px" viewBox="0 0 1000 1000" enable-background="new 0 0 1000 1000" xml:space="preserve">
<metadata> Svg Vector Icons : http://www.onlinewebfonts.com/icon </metadata>
<g><g transform="translate(0.000000,511.000000) scale(0.100000,-0.100000)"><path d="M4376.4,4386.4c-456.9-459.7-516.5-530.7-516.5-612.9c0-122,107.8-229.9,229.9-229.9c76.6,0,133.4,42.6,363.2,269.6c153.2,147.6,283.8,269.6,295.1,269.6c11.4,0,19.9-709.4,19.9-1574.9V932.9h-119.2C4061.4,930.1,3593.2,652,3369,175.3c-76.6-164.6-90.8-232.7-99.3-462.5c-11.4-323.5,42.6-530.7,207.1-780.4c218.5-329.2,581.7-522.1,1030.1-547.7l261.1-14.2v-788.9v-791.7h-493.8c-644.2,0-726.5-31.2-726.5-266.8c0-70.9,19.9-113.5,73.8-156.1c70.9-56.7,113.5-59.6,610.1-59.6H4768v-434.2c0-420,2.8-437,65.3-496.6c90.8-85.1,246.9-82.3,326.3,2.8c56.8,59.6,62.4,99.3,68.1,488.1l8.5,425.7l275.3,17c238.4,17,309.3,34.1,490.9,122c962,454,976.2,1807.6,25.5,2275.8c-170.3,85.1-255.4,107.9-505.1,133.4l-300.8,31.2v788.9v788.9h525c522.1,0,527.8,0,595.9,70.9c96.5,93.6,96.5,235.5-2.8,329.2c-70.9,65.3-88,68.1-595.9,76.6l-522.1,8.5v1574.9c0,865.5,8.5,1572.1,19.9,1572.1c11.3,0,141.9-122,295.1-269.6c229.9-227,286.6-269.6,363.2-269.6c122,0,229.8,107.8,229.8,229.9c0,82.3-59.6,153.2-516.5,612.9c-479.6,479.6-525,519.3-618.6,519.3S4856,4866,4376.4,4386.4z M4768-344v-794.6h-218.5c-280.9,0-456.9,76.6-627.1,269.6c-221.3,252.6-258.2,578.9-99.3,891.1c139,272.4,417.1,425.6,769,428.5H4768V-344z M5806.6-1700.4c184.5-93.6,286.6-195.8,366.1-357.6c153.3-312.1,113.5-635.6-110.7-888.2c-164.6-187.3-343.4-263.9-618.6-263.9h-221.3v797.4v800.2l235.5-14.2C5619.3-1635.2,5724.3-1657.9,5806.6-1700.4z"/><path d="M948.5,3339.3C741.3,3135,559.7,2933.5,545.5,2891c-59.6-164.6,102.1-340.5,272.4-298c36.9,8.5,136.2,82.3,221.3,161.8l153.2,144.7V1863.7V825.1l-181.6-19.9c-363.2-36.9-672.5-252.6-831.5-576C111.3,90.1,100,33.4,100-173.8c0-215.6,8.5-261.1,93.6-431.3c161.8-329.2,454-530.7,808.7-556.2l190.1-14.2l-5.7-513.6l-8.5-513.6l-391.6-14.2c-351.9-11.4-397.3-19.9-434.2-70.9c-68.1-90.8-76.6-173.1-28.4-266.8c56.8-107.8,88-113.5,513.6-124.8l340.5-5.7l14.2-306.5c14.2-280.9,19.9-315,82.3-363.2c85.1-68.1,204.3-68.1,289.5,0c62.4,48.2,68.1,82.3,82.3,363.2l14.2,306.5l184.4,17c357.6,28.4,655.5,235.5,814.4,559c68.1,141.9,79.4,195.8,79.4,417.1c0,221.3-11.3,275.3-79.4,417.1c-158.9,323.5-454,530.7-791.7,556.2l-193,14.2v519.3V337h354.7c340.5,0,360.4,2.8,425.7,70.9c96.5,93.6,96.5,235.5-2.8,329.2c-68.1,62.4-96.5,68.1-425.7,76.6l-351.9,11.4v1035.8v1038.6l167.4-158.9c198.6-190.1,275.3-204.3,403-79.5c150.4,153.2,130.5,195.8-323.5,647C1391.2,3838.8,1447.9,3835.9,948.5,3339.3z M1186.8-179.4l-8.5-519.3l-124.9,8.5c-275.3,17.1-485.2,235.5-485.2,499.5c0,295.1,224.2,525,519.3,527.8h105L1186.8-179.4z M1975.7-1220.9c181.6-82.3,275.2-229.8,289.4-439.8c5.7-130.5-2.8-195.8-45.4-272.4c-82.3-150.4-246.9-252.6-417.1-261.1l-141.9-8.5l-8.5,482.4c-2.8,263.9,0,496.6,5.7,516.5C1680.6-1149.9,1839.5-1158.5,1975.7-1220.9z"/><path d="M8108,3353.5c-201.5-201.5-383.1-400.1-403-442.7c-45.4-107.8-22.7-207.2,65.3-275.3c127.7-102.2,224.2-70.9,439.8,136.2l133.4,130.5V1863.7V825.1l-175.9-19.9c-561.9-62.4-976.2-544.8-919.4-1069.8c25.5-241.2,139-479.6,303.6-632.8c170.3-158.9,351.9-241.2,593.1-263.9l184.5-19.9v-510.8v-510.8l-391.6-14.2c-371.8-14.2-397.3-17-448.3-82.3c-28.4-36.9-53.9-102.1-53.9-144.7c0-42.6,25.5-107.8,53.9-144.7c51.1-65.3,76.6-68.1,448.3-82.3l391.6-14.2l8.5-303.6c8.5-289.5,11.4-306.5,82.3-363.2c90.8-70.9,210-73.8,295.1-2.8c62.4,48.2,68.1,82.3,82.3,363.2l14.2,306.5l184.5,17c224.2,19.9,408.6,96.5,567.5,241.2c448.4,405.8,448.4,1064.1,0,1470c-158.9,144.7-343.3,221.3-567.5,241.2l-184.5,17l-8.5,519.3l-5.7,516.5h368.9c357.5,0,374.6,2.8,439.8,70.9c90.8,88,90.8,212.8,2.8,317.8c-68.1,79.5-73.8,79.5-439.8,88l-371.7,11.4V1858c0,567.5,8.5,1032.9,19.9,1032.9c8.5,0,93.6-70.9,184.5-158.9c150.4-144.7,175.9-158.9,258.2-141.9c127.7,25.5,201.5,110.7,201.5,232.7c0,93.6-34.1,133.4-397.3,496.6C8545,3835.9,8596.1,3833.1,8108,3353.5z M8343.5-173.8c0-578.9,5.7-567.5-218.5-513.6c-173.1,45.4-280.9,124.8-349,258.2c-68.1,130.5-73.8,366.1-17,476.7c88,167.4,286.6,286.6,479.6,289.5h105V-173.8z M9101.2-1209.5c136.2-56.7,201.5-116.3,266.7-246.9c107.9-212.8,45.4-493.7-144.7-641.3c-76.6-59.6-255.4-119.2-360.4-119.2h-65.3v525v525h99.3C8953.6-1167,9044.4-1186.8,9101.2-1209.5z"/></g></g>
</svg>