<?xml version="1.0" encoding="iso-8859-1"?>
<!-- Generator: Adobe Illustrator 16.0.0, SVG Export Plug-In . SVG Version: 6.00 Build 0)  -->
<!DOCTYPE svg PUBLIC "-//W3C//DTD SVG 1.1//EN" "http://www.w3.org/Graphics/SVG/1.1/DTD/svg11.dtd">
<svg version="1.1" id="Capa_1" xmlns="http://www.w3.org/2000/svg" xmlns:xlink="http://www.w3.org/1999/xlink" x="0px" y="0px"
	 width="189.141px" height="189.142px" viewBox="0 0 189.141 189.142" style="enable-background:new 0 0 189.141 189.142;"
	 xml:space="preserve">
<g>
	<g>
		<path d="M94.571,85.208c-21.675,0-39.309,17.637-39.309,39.302c0,21.678,17.634,39.312,39.309,39.312
			c21.671,0,39.306-17.634,39.306-39.312C133.876,102.846,116.242,85.208,94.571,85.208z M111.005,149.805l-16.435-8.634
			l-16.438,8.641l3.133-18.311L67.97,118.543l18.377-2.679l8.224-16.647l8.227,16.647l18.377,2.679l-13.299,12.958L111.005,149.805z
			"/>
		<path d="M94.571,78.522c-25.353,0-45.985,20.634-45.985,45.988c0,25.355,20.633,45.985,45.985,45.985
			c25.349,0,45.985-20.63,45.985-45.985C140.556,99.156,119.919,78.522,94.571,78.522z M94.571,165.375
			c-22.533,0-40.868-18.334-40.868-40.864c0-22.536,18.334-40.867,40.868-40.867c22.536,0,40.864,18.331,40.864,40.867
			C135.435,147.041,117.107,165.375,94.571,165.375z"/>
		<path d="M189.141,32.041l-37.802-21.823L114.555,73.94c-6.192-2.451-12.921-3.839-19.984-3.839s-13.792,1.388-19.985,3.839
			L37.798,10.218L0,32.041l43.166,74.763c-1.912,5.56-3.005,11.503-3.005,17.707c0,30.044,24.363,54.413,54.416,54.413
			c30.056,0,54.413-24.357,54.413-54.413c0-6.211-1.084-12.153-3.002-17.707L189.141,32.041z M94.571,172.055
			c-26.22,0-47.544-21.324-47.544-47.544s21.324-47.547,47.544-47.547c26.22,0,47.544,21.327,47.544,47.547
			S120.791,172.055,94.571,172.055z"/>
		<polygon points="129.309,40.069 144.453,10.218 44.688,10.218 59.829,40.069 		"/>
	</g>
</g>
<g>
</g>
<g>
</g>
<g>
</g>
<g>
</g>
<g>
</g>
<g>
</g>
<g>
</g>
<g>
</g>
<g>
</g>
<g>
</g>
<g>
</g>
<g>
</g>
<g>
</g>
<g>
</g>
<g>
</g>
</svg>
